PathFileType	4	(X/Y/Z)	C:\Users\WrightLab\Desktop\Jo\P1_boxCal18.trc
DataRate	CameraRate	NumFrames	NumMarkers	Units	OrigDataRate	OrigDataStartFrame	OrigNumFrames
100.00	100.00	       15	19	mm	100.00	70	       559
Frame#	Time	Headset_Front			Headset_Back			Headset_Left			Headset_Right			Left_Shoulder			Right_Shoulder			Sternum			C7			Left Elbow			Right Elbow			Left Wrist			Right Wrist			Left ASIS			Right ASIS			S2			Left Knee			Right Knee			Left Ankle			Right Ankle			
		X1	Y1	Z1	X2	Y2	Z2	X3	Y3	Z3	X4	Y4	Z4	X5	Y5	Z5	X6	Y6	Z6	X7	Y7	Z7	X8	Y8	Z8	X9	Y9	Z9	X10	Y10	Z10	X11	Y11	Z11	X12	Y12	Z12	X13	Y13	Z13	X14	Y14	Z14	X15	Y15	Z15	X16	Y16	Z16	X17	Y17	Z17	X18	Y18	Z18	X19	Y19	Z19	

70	0.690	-623.93695	1357.20557	-782.73224	-567.05090	1460.07593	-1066.95874	-483.29114	1404.07178	-931.48480	-708.71985	1384.51038	-904.93713	-392.58255	1225.93420	-973.82410	-763.31110	1214.54004	-1029.08020	-620.02026	1107.88623	-873.64716	-548.57135	1228.07166	-1110.22058	-308.13507	905.83649	-1013.24896	-835.37726	939.04877	-1085.51257	-246.65289	730.86108	-923.30792	-901.66516	713.18652	-997.03076	-541.01038	825.39600	-845.12463	-724.76318	821.13745	-926.72583	-502.59927	852.88525	-1167.74634	-490.43192	425.82571	-827.20020	-687.42010	392.68808	-1160.07629	-535.94739	76.39001	-758.64069				
71	0.700	-626.55652	1360.22046	-772.99182	-567.74329	1460.80273	-1057.55688	-484.23767	1404.99573	-919.05524	-709.61176	1385.99292	-894.63330	-393.28885	1225.04138	-961.62756	-763.47748	1216.08606	-1017.72394	-622.57056	1110.19873	-862.36664	-549.54773	1228.40906	-1098.69678	-311.72025	904.71985	-1001.38251	-836.11249	941.33240	-1075.77649	-248.04219	730.29382	-916.05029	-902.90607	713.71869	-989.90692	-544.47015	825.50934	-835.42950	-727.15729	822.82410	-914.88916	-505.38226	853.24664	-1156.37463	-491.87036	427.24002	-815.58276	-692.57886	391.48151	-1147.84814	-535.85028	74.56831	-750.23346				
72	0.710	-628.32593	1363.27844	-762.95459	-568.40869	1461.57117	-1047.31531	-485.37399	1406.83557	-909.49677	-710.51526	1388.89478	-884.95789	-394.05505	1224.70447	-951.32483	-764.90729	1218.37927	-1006.71613	-621.26605	1111.78052	-850.09003	-550.62323	1229.66431	-1087.86719	-314.15640	904.72620	-992.98499	-836.70325	942.64539	-1065.03467	-249.68733	729.73785	-908.22192	-903.44165	714.12128	-982.10468	-547.31799	826.44031	-823.72015	-729.26624	824.75757	-903.01410	-508.04962	853.81879	-1144.05310	-494.23676	428.15903	-804.54309	-698.86639	392.12616	-1133.44849	-535.07910	73.72202	-744.33704				
73	0.720	-628.02844	1365.20154	-752.01410	-569.05481	1462.50305	-1037.98438	-485.58099	1408.26221	-897.33887	-712.09711	1391.18005	-875.05060	-395.36697	1226.26062	-943.29694	-766.12396	1220.40088	-995.59210	-624.08929	1114.25586	-839.60529	-551.85834	1231.08167	-1076.89917	-316.80978	904.81824	-983.25116	-837.33954	944.37543	-1054.29724	-251.14635	729.88745	-900.76190	-904.87085	715.49829	-975.57428	-549.67371	827.83936	-811.33380	-731.21100	826.61469	-890.41498	-510.62976	855.46863	-1133.26318	-497.09412	429.88181	-792.78198	-704.31531	391.82465	-1120.17212	-534.77106	72.01705	-739.89960				
74	0.730	-630.28137	1368.67358	-741.90619	-569.57520	1463.90613	-1028.19043	-487.41714	1410.60693	-889.53101	-713.00861	1393.35144	-864.82306	-397.23483	1226.57019	-929.35968	-767.66461	1222.89404	-984.64099	-625.52643	1115.85852	-828.11206	-553.39429	1232.58496	-1066.48608	-318.94513	905.75159	-974.47913	-838.42841	947.00000	-1043.85168	-253.54066	730.25787	-892.23132	-907.00861	717.59900	-968.92200	-552.13898	831.66272	-797.52252	-732.53931	829.46381	-878.26648	-512.96155	856.94092	-1121.23645	-498.56790	431.96640	-782.56482	-711.68390	392.00449	-1102.50952	-535.27899	68.28780	-736.24341				
75	0.740	-631.91321	1371.87878	-731.98785	-570.29468	1465.07593	-1018.54590	-487.56781	1412.21594	-879.51837	-713.97296	1396.75952	-855.49835	-398.54688	1228.71521	-922.19513	-769.32416	1225.36169	-973.84393	-625.16125	1118.43042	-816.61072	-554.72351	1234.54797	-1055.86438	-322.54572	908.12445	-965.50598	-839.19525	949.74573	-1032.78784	-255.17091	731.42535	-883.90405	-908.65704	720.24030	-962.29211	-554.85297	832.33392	-788.24896	-734.59180	832.02338	-866.01892	-515.15607	858.99744	-1110.47913	-501.39447	433.67758	-772.29883	-717.37311	393.05682	-1089.59705	-535.79938	65.69932	-735.43140				
76	0.750	-632.88177	1375.12244	-722.02063	-570.94690	1466.60291	-1008.82220	-489.03714	1413.51477	-869.17902	-715.20508	1398.91711	-845.26813	-400.08078	1229.62573	-910.62744	-771.24646	1227.81946	-962.74847	-627.03308	1121.55774	-806.14008	-556.81702	1235.88025	-1045.73230	-325.66089	909.43042	-954.02917	-839.62775	952.43701	-1021.63013	-257.38257	733.01611	-875.60345	-910.36102	722.84326	-955.23688	-554.53510	837.53180	-771.29706	-736.17896	835.77972	-854.06940	-517.25653	860.69330	-1098.83459	-503.39963	436.58624	-761.91925				-535.71802	66.41645	-734.76978				
77	0.760	-633.77020	1377.51147	-712.47388	-571.91760	1467.88635	-999.34650	-489.78094	1415.09802	-859.03265	-715.89252	1402.48071	-835.99915	-402.25836	1231.83521	-900.56635	-773.52917	1230.62000	-952.41144	-630.26630	1125.12976	-796.22357	-558.60669	1237.84009	-1035.97620	-327.93909	910.99957	-944.50098	-841.52362	955.51801	-1011.28339	-258.84723	734.48297	-866.85938	-912.67084	726.13428	-948.22595	-555.42035	840.53894	-760.40814	-738.69958	839.04694	-841.74731	-519.34882	862.25342	-1087.56091	-504.39136	438.50986	-754.21979	-737.99963	396.68408	-1055.83118	-535.02283	66.03749	-733.38849				
78	0.770	-635.36115	1380.71191	-702.54376	-572.79144	1469.72046	-990.43225	-490.95581	1416.49744	-850.12695	-717.25189	1405.38635	-826.24170	-403.78162	1234.13794	-890.44928	-774.93341	1233.39490	-942.52594	-632.92523	1128.84717	-786.86194	-560.70081	1239.39709	-1026.18799	-330.32458	913.13885	-936.08624	-842.84131	958.05603	-1000.48627	-260.95120	736.96667	-857.45679	-915.82861	729.27899	-941.10767	-556.95581	843.34052	-748.76599	-738.87085	841.92267	-830.78131	-521.34735	864.85333	-1078.54456	-506.26672	440.23947	-744.22797	-746.29333	400.94305	-1038.46594	-534.97339	65.98476	-732.39362				
79	0.780	-634.79968	1382.23853	-693.23199	-573.89508	1471.21997	-980.91559	-491.94058	1418.30505	-841.82874	-717.99982	1407.69861	-816.30707	-405.99609	1235.97791	-879.39233	-776.87134	1235.62061	-932.26794	-631.50470	1130.56445	-775.56927	-562.85846	1241.47998	-1017.28790	-333.09863	915.68268	-925.57104	-845.62213	961.07648	-990.34668	-263.43301	739.24463	-847.14099	-918.89453	732.16144	-933.35437	-557.79523	847.47253	-737.77753	-740.17291	845.12433	-819.10144	-523.38452	865.84332	-1068.19373	-505.92828	441.03391	-736.88928	-759.10541	398.96423	-1023.67303	-535.20837	67.49557	-732.19098				
80	0.790	-637.25427	1384.88245	-683.97485	-575.23920	1473.15125	-972.30780	-493.41010	1418.46973	-829.29968	-719.41223	1410.80933	-806.70807	-408.13742	1238.68689	-871.61945	-779.15057	1237.65820	-922.84631	-635.16992	1133.57520	-766.26227	-564.96582	1242.97778	-1007.81738	-335.44348	918.38263	-915.76184	-848.08838	963.51343	-980.46051	-265.02209	741.95325	-836.49152	-922.46924	735.45441	-926.01691	-558.73938	850.00732	-727.44788	-740.96820	847.49200	-807.91461	-525.29596	867.07220	-1056.90869	-504.89337	440.49722	-728.49664	-766.88440	403.94342	-1003.06616	-536.05060	67.52442	-731.93097				
81	0.800	-637.69305	1386.83655	-674.63141	-576.71436	1475.34106	-963.05548	-494.95078	1418.68848	-816.90955	-720.99097	1413.44458	-797.39514	-409.76041	1241.02649	-862.22925	-781.25415	1239.90649	-913.38751	-637.60730	1136.00208	-757.50763	-567.27313	1244.51013	-998.71503	-337.23972	920.61383	-905.78778	-850.82764	965.56683	-970.46796	-266.80121	744.23126	-825.83026	-926.35181	738.35199	-918.24719	-560.51190	852.35889	-715.51996	-741.48016	849.47949	-796.64142	-527.10236	868.67090	-1046.76172	-503.77365	439.89755	-721.49695	-776.25879	406.18347	-985.00415	-536.56433	65.90745	-731.28583				
82	0.810	-638.55219	1387.69727	-665.54657	-578.44257	1477.19958	-953.94995	-496.18283	1420.96875	-811.63745	-722.03339	1415.29248	-787.78479	-411.97339	1243.49097	-854.63043	-782.81049	1241.35669	-904.09259	-637.62128	1138.15405	-748.44617	-569.48682	1246.37781	-989.66766	-338.93066	922.89417	-895.26819	-853.49237	967.93848	-960.90863	-268.54449	746.91315	-814.88428	-929.90100	741.14667	-909.65320	-560.34485	855.13257	-705.80963	-742.78296	852.23743	-786.60492	-529.54205	870.03088	-1036.39294	-502.23410	439.74954	-715.44537	-786.44086	407.21738	-965.63818	-537.63269	64.48277	-731.32068				
83	0.820	-640.90723	1389.55127	-656.50427	-580.23663	1479.49951	-945.11243	-497.82101	1422.47192	-803.47589	-723.65466	1418.22375	-778.80847	-414.63052	1245.74866	-844.56494	-784.99359	1242.85132	-895.49481	-640.98901	1140.95959	-739.81433	-571.67230	1247.72375	-981.19812	-340.00443	924.95129	-885.10394	-856.92206	969.65399	-951.20276	-270.39709	749.73389	-803.51080	-934.53650	743.64563	-901.72467	-561.06531	857.54474	-696.16431	-743.97833	854.07428	-776.52057	-531.41565	871.07330	-1026.22180	-500.74725	438.59787	-710.04865	-795.71210	411.40518	-947.13226	-539.68677	62.49130	-730.53754				
84	0.830	-641.15125	1390.39355	-647.96704	-582.07904	1481.51282	-936.09430	-499.46332	1424.39844	-796.58594	-725.22571	1419.96814	-769.50537	-416.34528	1247.66736	-836.85754	-787.11273	1243.97498	-887.00360	-642.71289	1142.02930	-731.31128	-573.74548	1249.40259	-972.64453	-341.83420	927.18658	-873.87256	-859.43726	970.95972	-941.43127	-272.05151	752.26501	-791.22589	-938.44135	746.31079	-892.95990	-561.54309	860.44623	-686.76910	-744.47803	856.16821	-766.19824	-532.92133	872.59808	-1016.54443	-498.93649	436.80789	-705.32379	-804.45471	414.89029	-928.63184	-539.85925	60.81325	-730.39813				
